<svg width="180" height="28" viewBox="0 0 159 24" fill="none" xmlns="http://www.w3.org/2000/svg">
<path d="M15.3862 1.79956H17.4365V5.88019H5.20577V9.96082H15.3862V12H13.3559V14.0481H5.21466V22.1805H1.13403V1.79956H15.3862Z" fill="black"/>
<path d="M34.4953 5.89799H36.5256V22.2005H32.4673V16.0896H24.306V22.2005H20.2231V5.89799H22.2735V3.86768H24.3038V1.81958H32.4673V3.86768H34.4976L34.4953 5.89799ZM32.4939 9.96083V7.93052H30.4436V5.8802H26.3541V7.93052H24.3238V12H32.485L32.4939 9.96083Z" fill="black"/>
<path d="M53.5928 3.86768H55.6231V12H53.5928V14.0303H51.5425V16.0807H53.5928V18.111H55.6231V22.2005H51.5336V20.1502H49.5033V18.1199H47.453V16.0896H43.3923V22.2005H39.3117V1.81958H53.5928V3.86768ZM49.5033 12H51.5336V5.89799H43.3923V12H49.5033Z" fill="black"/>
<path d="M72.673 1.79956H74.7033V5.88019H62.4881V9.96082H72.673V12H70.6227V14.0481H62.4881V18.1021H74.7189V22.1805H58.4008V1.79956H72.673Z" fill="black"/>
<path d="M98.5686 3.86768H100.599V12H98.5686V14.0303H96.5116V16.0807H88.3771V22.2005H84.2964V1.81958H98.5686V3.86768ZM94.488 12H96.5116V5.89799H88.3771V12H94.488Z" fill="black"/>
<path d="M117.638 16.0896H119.688V22.2005H103.386V1.81958H107.446V18.1199H115.607V16.0896H117.638Z" fill="black"/>
<path d="M136.747 5.89799H138.777V22.2005H134.717V16.0896H126.555V22.2005H122.475V5.89799H124.532V3.86768H126.562V1.81958H134.723V3.86768H136.754L136.747 5.89799ZM134.746 9.96083V7.93052H132.695V5.8802H128.606V7.93052H126.575V12H134.737L134.746 9.96083Z" fill="black"/>
<path d="M155.835 1.81958H157.866V9.97861H155.835V12H153.785V14.0303H151.755V22.1916H147.674V14.0392H145.644V12H143.614V9.97861H141.563V1.81958H145.644V7.93052H147.674V9.97861H151.755V7.93052H153.785V1.81958H155.835Z" fill="black"/>
</svg>
